<svg xmlns="http://www.w3.org/2000/svg" viewBox="4834.837 3947.998 249.92 118.503">
  <defs>
    <style>
      .cls-1 {
        fill: none;
        stroke: #fff;
        stroke-width: 8px;
      }
    </style>
  </defs>
  <g id="Symbol_8_15" data-name="Symbol 8 – 15" transform="translate(4000 3480)">
    <path id="Path_25" data-name="Path 25" class="cls-1" d="M63.941,127.6V105.144h42.867v22.742H63.759A63.943,63.943,0,0,1,63.941,0h42.867V23.744H63.759V.555" transform="translate(1023.508 471.997) rotate(90)"/>
    <path id="Path_26" data-name="Path 26" class="cls-1" d="M0,0A22.12,22.12,0,0,1,22.12,22.12" transform="translate(1043.414 542.668) rotate(45)"/>
    <path id="Path_29" data-name="Path 29" class="cls-1" d="M0,0A22.12,22.12,0,0,1,22.12,22.12" transform="translate(876.18 573.949) rotate(-135)"/>
    <path id="Path_27" data-name="Path 27" class="cls-1" d="M0,0A35.87,35.87,0,0,1,35.87,35.87" transform="translate(1053.736 532.944) rotate(45)"/>
    <path id="Path_28" data-name="Path 28" class="cls-1" d="M0,0A35.87,35.87,0,0,1,35.87,35.87" transform="translate(865.858 583.673) rotate(-135)"/>
  </g>
</svg>
