<svg xmlns="http://www.w3.org/2000/svg" viewBox="1397.7 5347.7 117.5 117.5">
  <defs>
    <style>
      .cls-1 {
        fill: #fff;
      }
    </style>
  </defs>
  <g id="Group_27" data-name="Group 27" transform="translate(1397.7 5347.7)">
    <g id="Group_25" data-name="Group 25" transform="translate(29.374 24.46)">
      <path id="Path_21" data-name="Path 21" class="cls-1" d="M30.48,73.538H8.448a2.447,2.447,0,0,1-1.8-4.108L34.489,39.286,6.652,9.1A2.447,2.447,0,0,1,8.448,5H30.715a2.462,2.462,0,0,1,1.733.72L64.035,37.558a2.453,2.453,0,0,1,0,3.456l-31.823,31.8A2.43,2.43,0,0,1,30.48,73.538Zm-16.435-4.9H29.466l29.38-29.365L29.7,9.892H14.039L39.625,37.627a2.444,2.444,0,0,1,0,3.319Z" transform="translate(-6 -4.996)"/>
    </g>
    <g id="Group_26" data-name="Group 26" transform="translate(0 0)">
      <path id="Path_22" data-name="Path 22" class="cls-1" d="M115.052,117.5H2.448A2.449,2.449,0,0,1,0,115.052V2.448A2.449,2.449,0,0,1,2.448,0h112.6A2.449,2.449,0,0,1,117.5,2.448v112.6A2.449,2.449,0,0,1,115.052,117.5ZM4.9,112.6H112.6V4.9H4.9Z"/>
    </g>
  </g>
</svg>
